<?xml version="1.0" encoding="utf-8"?>
<!-- Generator: Adobe Illustrator 19.2.1, SVG Export Plug-In . SVG Version: 6.00 Build 0)  -->
<svg version="1.1" id="Calque_1" xmlns="http://www.w3.org/2000/svg" xmlns:xlink="http://www.w3.org/1999/xlink" x="0px" y="0px"
	 width="11.2px" height="6.7px" viewBox="0 0 11.2 6.7" style="enable-background:new 0 0 11.2 6.7;" xml:space="preserve">
<path d="M0,0.5c0-0.1,0.1-0.3,0.2-0.4C0.4-0.1,0.7,0,0.9,0.2l4.6,5.3c0.1,0.1,0.1,0.1,0.1,0.1c0,0,0.1,0,0.1-0.1l4.6-5.4
	C10.5,0,10.8-0.1,11,0.1c0.2,0.2,0.2,0.5,0.1,0.7L6.5,6.2C6.3,6.5,6,6.7,5.6,6.7c-0.4,0-0.7-0.2-0.9-0.6L0.1,0.8C0,0.7,0,0.6,0,0.5z
	"/>
</svg>
