<?xml version="1.0" encoding="utf-8"?>
<!-- Generator: Adobe Illustrator 17.1.0, SVG Export Plug-In . SVG Version: 6.00 Build 0)  -->
<!DOCTYPE svg PUBLIC "-//W3C//DTD SVG 1.1//EN" "http://www.w3.org/Graphics/SVG/1.1/DTD/svg11.dtd">
<svg version="1.1" id="Calque_1" xmlns="http://www.w3.org/2000/svg" xmlns:xlink="http://www.w3.org/1999/xlink" x="0px" y="0px"
	 width="76.8px" height="64px" viewBox="153.6 192.1 76.8 64" enable-background="new 153.6 192.1 76.8 64" xml:space="preserve">
<path d="M230.4,246.4v6.4c0,0.9-0.3,1.6-1,2.3c-0.6,0.6-1.4,1-2.3,1h-70.4c-0.9,0-1.6-0.3-2.3-1c-0.6-0.6-0.9-1.4-0.9-2.3v-6.4
	c0-0.9,0.3-1.6,1-2.3s1.4-1,2.3-1h70.4c0.9,0,1.6,0.3,2.3,1C230.1,244.8,230.4,245.6,230.4,246.4z M230.4,220.8v6.4
	c0,0.9-0.3,1.6-1,2.3s-1.4,0.9-2.3,0.9h-70.4c-0.9,0-1.6-0.3-2.3-0.9c-0.6-0.6-0.9-1.4-0.9-2.3v-6.4c0-0.9,0.3-1.6,1-2.3
	s1.4-0.9,2.2-0.9h70.4c0.9,0,1.6,0.3,2.3,1C230.1,219.2,230.4,220,230.4,220.8z M230.4,195.2v6.4c0,0.9-0.3,1.6-1,2.3s-1.4,1-2.3,1
	h-70.4c-0.9,0-1.6-0.3-2.3-1s-0.9-1.4-0.9-2.3v-6.4c0-0.9,0.3-1.6,1-2.3s1.4-0.9,2.2-0.9h70.4c0.9,0,1.6,0.3,2.3,1
	S230.4,194.4,230.4,195.2z"/>
</svg>
