<?xml version="1.0" encoding="utf-8"?>
<!-- Generated by IcoMoon.io -->
<!DOCTYPE svg PUBLIC "-//W3C//DTD SVG 1.1//EN" "http://www.w3.org/Graphics/SVG/1.1/DTD/svg11.dtd">
<svg version="1.1" xmlns="http://www.w3.org/2000/svg" xmlns:xlink="http://www.w3.org/1999/xlink" width="20" height="28" viewBox="0 0 20 28">
<path fill="#000" d="M16.406 17.281c0 2.234-0.781 4.203-2.297 5.844-1.578 1.719-3.578 2.516-5.906 2.516-2.312 0-4.328-0.781-5.906-2.516-1.516-1.641-2.297-3.609-2.297-5.844 0-4.641 3.5-8.437 8.203-8.437 0.969 0 1.937 0.156 2.844 0.484-0.313 0.609-0.531 1.281-0.609 1.969-0.703-0.297-1.469-0.438-2.234-0.438-3.547 0-6.156 3.031-6.156 6.469 0 3.5 2.594 6.359 6.156 6.359s6.141-2.859 6.141-6.359c0-0.891-0.156-1.766-0.5-2.594 0.688-0.141 1.344-0.406 1.922-0.766 0.438 1.047 0.641 2.188 0.641 3.313zM13.219 14.328c0 3.938-1.594 7.219-4.969 9.344l-0.219 0.016c-0.328 0-0.656-0.031-0.969-0.078 4.516-1.719 5.344-8.578 5.344-12.766 0-0.531 0-1.078-0.047-1.609 0.562 1.641 0.859 3.359 0.859 5.094zM12.359 9.203v0.031c-0.812-2.391-1.937-4.703-3.219-6.875 1.969 1.328 3.047 4.547 3.219 6.844zM16.172 12.375c-0.969 0-1.828-0.516-2.5-1.172 1.594-0.875 3.609-2.234 4.531-3.859 0.109-0.219 0.297-0.625 0.328-0.875-0.906 2.031-3.219 3.625-5.375 4.125-0.344-0.531-0.547-1.125-0.547-1.766 0-0.75 0.375-1.75 0.938-2.297 0.641-0.609 1.594-0.922 2.453-1.156 1.25-0.344 2.266-1.313 2.812-2.484 0.812 1.156 1.156 2.562 1.156 3.953 0 0.703-0.109 1.984-0.375 2.656-0.578 1.406-1.75 2.875-3.422 2.875z"></path>
</svg>
