<svg xmlns="http://www.w3.org/2000/svg" viewBox="0 0 64 64"><path d="M63.416 51.416l-.001-.001L44 31.999l19.415-19.416.001-.001a1.998 1.998 0 00-.001-2.827L54.243.583a1.999 1.999 0 00-2.828-.001l-.001.001-19.416 19.416L12.582.583l-.001-.001a1.998 1.998 0 00-2.827 0L.582 9.754a1.999 1.999 0 00-.001 2.827l.001.001 19.416 19.416L.582 51.414v.001a1.997 1.997 0 00.001 2.827l9.172 9.172a1.999 1.999 0 002.827.001l.001-.001 19.416-19.416 19.416 19.416.001.001a1.998 1.998 0 002.827-.001l9.172-9.172a1.999 1.999 0 00.001-2.827z"/></svg>