<svg width="20" height="20" viewBox="0 0 20 20" xmlns="http://www.w3.org/2000/svg"><path d="M7.08333 10.4167H12.9167V9.08333H7.08333V10.4167ZM7.08333 12.9167H12.9167V11.5833H7.08333V12.9167ZM7.08333 15.4167H10.7083V14.0833H7.08333V15.4167ZM5.49417 18C5.08139 18 4.72917 17.8531 4.4375 17.5594C4.14583 17.2656 4 16.9125 4 16.5V3.5C4 3.0875 4.14687 2.73438 4.44062 2.44063C4.73437 2.14688 5.0875 2 5.5 2H12L16 6V16.5C16 16.9125 15.8531 17.2656 15.5592 17.5594C15.2653 17.8531 14.9119 18 14.4992 18H5.49417ZM11 7V3.5H5.5V16.5H14.5V7H11Z"/></svg>
