<svg width="20" height="20" viewBox="0 0 20 20" xmlns="http://www.w3.org/2000/svg"><path d="M4.5 17C4.0875 17 3.73437 16.8507 3.44062 16.5521C3.14687 16.2535 3 15.9028 3 15.5V4.5C3 4.09722 3.14687 3.74653 3.44062 3.44792C3.73437 3.14931 4.0875 3 4.5 3H15.5C15.9125 3 16.2656 3.14931 16.5594 3.44792C16.8531 3.74653 17 4.09722 17 4.5V15.5C17 15.9028 16.8531 16.2535 16.5594 16.5521C16.2656 16.8507 15.9125 17 15.5 17H4.5ZM4.5 15.5H15.5V4.5H4.5V15.5ZM5.5 14H14.5L11.5 10L9.25 13L7.75 11L5.5 14Z"/></svg>
