<svg xmlns="http://www.w3.org/2000/svg" viewBox="0 0 652.7 688.3"><path d="M337.2 687.5c-5.6-2.1-9.4-7.4-9.5-13.4l-2-79.1h-311c-3.9 0-7.7-1.5-10.4-4.3C1.6 588 0 584.2 0 580.3V14.7c0-3.9 1.6-7.6 4.3-10.4C7.1 1.6 10.8 0 14.7 0H638c3.9 0 7.7 1.6 10.4 4.3 2.7 2.8 4.3 6.5 4.3 10.4v565.4c0 3.9-1.5 7.6-4.3 10.4a14.6 14.6 0 01-10.4 4.3H435.7l-82.5 88.8c-2.8 3.1-6.8 4.7-10.8 4.7-1.7.1-3.5-.2-5.2-.8zm-307.8-122h310.7c8 0 14.5 6.4 14.7 14.3l1.4 57.4 62.3-67c2.8-3 6.7-4.7 10.8-4.7h193.9v-536H29.4v536zM638 580.2v-14.7 14.7z"/><path d="M214 319h27.5v109.6H214V417c-5.4 5.1-10.7 8.8-16.1 11s-11.3 3.4-17.5 3.4c-14.2 0-26.4-5.5-36.7-16.5-10.3-11-15.5-24.6-15.5-40.9 0-16.9 5-30.8 15-41.6s22.1-16.2 36.4-16.2c6.6 0 12.7 1.2 18.5 3.7s11.1 6.2 16 11.2V319h-.1zm-28.9 22.5c-8.5 0-15.6 3-21.2 9s-8.4 13.7-8.4 23.1c0 9.5 2.9 17.3 8.6 23.4s12.8 9.2 21.1 9.2c8.6 0 15.8-3 21.5-9s8.5-13.9 8.5-23.6c0-9.6-2.9-17.3-8.5-23.2-5.7-5.9-12.9-8.9-21.6-8.9zM305.3 319v12.1c5-5 10.3-8.7 16.1-11.2 5.8-2.5 11.9-3.7 18.5-3.7 14.3 0 26.5 5.4 36.4 16.2 10 10.8 15 24.7 15 41.6 0 16.3-5.2 30-15.5 40.9-10.3 11-22.6 16.5-36.8 16.5-6.3 0-12.2-1.1-17.6-3.4s-10.8-5.9-16.2-11v51.7h-27.3V319h27.4zm28.9 22.5c-8.7 0-15.8 2.9-21.5 8.9-5.7 5.9-8.6 13.6-8.6 23.2 0 9.7 2.9 17.6 8.6 23.6s12.9 9 21.5 9c8.4 0 15.4-3 21.2-9.2 5.7-6.1 8.6-13.9 8.6-23.4 0-9.4-2.8-17.1-8.5-23.1-5.6-6-12.8-9-21.3-9zm97.5 9.3h27.5l-19.9 81.7h-27.5zm20.7-72.9c4.4 0 8.1 1.5 11.2 4.6 3.1 3 4.6 6.8 4.6 11.1 0 4.4-1.5 8.1-4.6 11.2s-6.8 4.6-11.2 4.6-8.1-1.5-11.2-4.6c-3.1-3.1-4.6-6.8-4.6-11.2 0-4.4 1.5-8.1 4.6-11.1 3.1-3.1 6.8-4.6 11.2-4.6zM515.8 431h-34.9c12-13.5 20.9-28.1 26.7-43.8 5.9-15.7 8.8-33.8 8.8-54.1 0-21.9-3.2-41.2-9.8-57.8-5.1-12.8-13.7-26.8-25.8-41.8h34.8c10.7 17.1 18.2 33 22.5 47.9s6.4 32.4 6.4 52.5c0 19.7-2.2 37-6.7 51.9-4.4 14.8-11.8 29.9-22 45.2zM387.6 232.3h-89.4c1.2 8 4.8 14.2 10.3 18.9 5.6 4.7 12.8 7 21.4 7 10.4 0 19.4-3.7 26.9-11l23.4 11.1c-5.8 8.3-12.8 14.3-20.9 18.4-8.3 3.9-17.8 5.9-29.2 5.9-17.4 0-31.5-5.5-42.4-16.4-11.1-11.1-16.5-24.7-16.5-41.2 0-17 5.4-31.1 16.4-42.2 10.9-11.1 24.5-16.8 41-16.8 17.5 0 31.6 5.7 42.5 16.8 11.1 11.1 16.5 25.9 16.5 44.2v5.3zm-27.8-21.8c-1.9-6.3-5.4-11.3-10.8-15.1-5.5-3.9-11.7-5.8-18.9-5.8-7.8 0-14.6 2-20.4 6.4-3.6 2.7-7.1 7.5-10.2 14.4h60.3v.1zm-197.1-84.8v54.5c5-5 10.5-8.7 16.3-11.2 5.7-2.5 12-3.8 18.6-3.8 14.4 0 26.7 5.6 36.7 16.4 10.1 10.8 15.1 24.8 15.1 41.7 0 16.5-5.2 30.1-15.7 41.3-10.4 11-22.5 16.4-36.8 16.4-6.4 0-12.3-1.1-17.7-3.3-5.4-2.3-10.8-6.1-16.4-11.2v11.7h-27.3V125.7h27.2zm29.1 65.1c-8.8 0-15.9 3.1-21.7 9-5.7 5.9-8.5 13.6-8.5 23.3 0 9.8 2.8 17.7 8.5 23.8 5.8 6 12.9 8.9 21.7 8.9 8.4 0 15.5-3 21.2-9.1 5.9-6.2 8.8-14 8.8-23.6 0-9.3-2.8-17.2-8.6-23.2-5.6-6-12.8-9.1-21.4-9.1z"/></svg>