<svg xmlns="http://www.w3.org/2000/svg" viewBox="153.6 192.1 76.8 64"><path d="M230.4 246.4v6.4c0 .9-.3 1.6-1 2.3-.6.6-1.4 1-2.3 1h-70.4c-.9 0-1.6-.3-2.3-1-.6-.6-.9-1.4-.9-2.3v-6.4c0-.9.3-1.6 1-2.3s1.4-1 2.3-1h70.4c.9 0 1.6.3 2.3 1 .6.7.9 1.5.9 2.3zm0-25.6v6.4c0 .9-.3 1.6-1 2.3s-1.4.9-2.3.9h-70.4c-.9 0-1.6-.3-2.3-.9-.6-.6-.9-1.4-.9-2.3v-6.4c0-.9.3-1.6 1-2.3s1.4-.9 2.2-.9h70.4c.9 0 1.6.3 2.3 1 .7.6 1 1.4 1 2.2zm0-25.6v6.4c0 .9-.3 1.6-1 2.3s-1.4 1-2.3 1h-70.4c-.9 0-1.6-.3-2.3-1s-.9-1.4-.9-2.3v-6.4c0-.9.3-1.6 1-2.3s1.4-.9 2.2-.9h70.4c.9 0 1.6.3 2.3 1s1 1.4 1 2.2z"/></svg>