<svg xmlns="http://www.w3.org/2000/svg" viewBox="0 0 20 20"><path d="M4.902 3.077C6.965 4.64 9.185 7.812 10 9.514v4.495c0-.095-.037.013-.115.245-.426 1.262-2.087 6.184-5.885 2.249-2-2.072-1.074-4.144 2.566-4.77-2.082.359-4.424-.233-5.066-2.55-.185-.667-.5-4.774-.5-5.33 0-2.778 2.413-1.904 3.902-.776Zm10.196 0C13.035 4.64 10.815 7.812 10 9.514v4.495c0-.095.037.013.115.245.426 1.262 2.087 6.184 5.885 2.249 2-2.072 1.074-4.144-2.566-4.77 2.082.359 4.424-.233 5.066-2.55.185-.667.5-4.774.5-5.33 0-2.778-2.413-1.904-3.902-.776Z"/></svg>
